# xmcd
#
# Track frame offsets:
#	150
#	14644
#	27553
#	42369
#	56414
#	68618
#	84518
#	100343
#	114742
#	130465
#	146215
#	161140
#	172427
#
# Disc length: 2520 seconds
#
# Revision: 0
# Processed by: cddbd v1.5.2PL0 Copyright (c) Steve Scherf et al.
# Submitted via: audiograbber 1.83.01
#
DISCID=c509d60d
DTITLE=DIE GRUBERTALER - AM SONNTAG NACH DER KIRCHEN
DYEAR=2011
DGENRE=volkstümlich
TTITLE0=AM SONNTAG NACH DER KIRCHN
TTITLE1=DA SCHLAGT MEI HERZ AN BOARISCHEN
TTITLE2=WENN ICH EIN MALER WAER
TTITLE3=KNOSPENBOARISCHER
TTITLE4=BLAU, BLAU, BLAU, MUSS DER HIMMEL SEIN
TTITLE5=DEN ERSTEN KUSS VERGISST MAN NIE
TTITLE6=EINE HERDE WEISSER SCHAFE
TTITLE7=HAST DU A BISSERL ZEIT
TTITLE8=WENN I IN DEINE AUGEN SCHAU
TTITLE9=ICH WILL KEIN SOUVENIR
TTITLE10=A JODLER VON DEN BERGEN
TTITLE11=LIEBER EHRLICH UND ECHT
TTITLE12=AN EINEM SONNTAGMORGEN
EXTD=
EXTT0=
EXTT1=
EXTT2=
EXTT3=
EXTT4=
EXTT5=
EXTT6=
EXTT7=
EXTT8=
EXTT9=
EXTT10=
EXTT11=
EXTT12=
PLAYORDER=
